<?xml version="1.0" encoding="utf-8"?>
<!-- Generator: Adobe Illustrator 15.1.0, SVG Export Plug-In . SVG Version: 6.00 Build 0)  -->
<!DOCTYPE svg PUBLIC "-//W3C//DTD SVG 1.1//EN" "http://www.w3.org/Graphics/SVG/1.1/DTD/svg11.dtd">
<svg version="1.1" id="Ebene_1" xmlns="http://www.w3.org/2000/svg" xmlns:xlink="http://www.w3.org/1999/xlink" x="0px" y="0px"
	 width="8.053px" height="8.053px" viewBox="0 0 8.053 8.053" enable-background="new 0 0 8.053 8.053" xml:space="preserve">
<g>
	<path fill="#E52621" d="M4.026,7.803c-2.083,0-3.776-1.694-3.776-3.776S1.944,0.25,4.026,0.25s3.776,1.694,3.776,3.776
		S6.109,7.803,4.026,7.803z"/>
	<path d="M4.026,0.5c1.944,0,3.526,1.582,3.526,3.526S5.971,7.553,4.026,7.553S0.5,5.971,0.5,4.026S2.082,0.5,4.026,0.5 M4.026,0
		C1.803,0,0,1.803,0,4.026s1.803,4.026,4.026,4.026S8.053,6.25,8.053,4.026S6.25,0,4.026,0L4.026,0z"/>
</g>
</svg>
